<svg xmlns:xlink="http://www.w3.org/1999/xlink" xmlns:dc="http://purl.org/dc/elements/1.1/" xmlns:cc="http://creativecommons.org/ns#" xmlns:rdf="http://www.w3.org/1999/02/22-rdf-syntax-ns#" xmlns:svg="http://www.w3.org/2000/svg" xmlns="http://www.w3.org/2000/svg" id="svg107166" viewBox="0 0 1024 768" height="768" width="1024" version="1.1">
  <metadata id="metadata107172">
    <rdf:rdf>
      <cc:work rdf:about="">
        <dc:format>image/svg+xml</dc:format>
        <dc:type rdf:resource="http://purl.org/dc/dcmitype/StillImage"></dc:type>
      </cc:work>
    </rdf:rdf>
  </metadata>
  <defs id="defs107170"></defs>
  <g id="logo-group">
    <g id="title" style="font-style:normal;font-weight:700;font-size:72px;line-height:1;font-family:Brandmark1Bold;font-variant-ligatures:none;text-align:center;text-anchor:middle" aria-label="chordy">
      <path id="path107174" style="font-style: normal; font-weight: 700; font-size: 72px; line-height: 1; font-family: Brandmark1Bold; font-variant-ligatures: none; text-align: center; text-anchor: middle;" d="m 419.1245,123.096 c 6.696,0 13.032,-3.312 16.92,-8.928 l -8.928,-6.12 c -1.8,2.664 -4.824,4.248 -7.992,4.248 -5.4,0 -9.72,-4.392 -9.72,-9.72 0,-5.4 4.32,-9.72 9.72,-9.72 3.096,0 6.12,1.512 7.92,4.104 l 8.856,-6.192 c -1.872,-2.664 -4.392,-4.824 -7.2,-6.336 -2.952,-1.584 -6.264,-2.376 -9.576,-2.376 -2.808,0 -5.472,0.504 -7.992,1.584 -2.448,1.08 -4.68,2.52 -6.552,4.392 -1.872,1.944 -3.384,4.104 -4.392,6.552 -1.08,2.52 -1.584,5.256 -1.584,7.992 0,2.736 0.504,5.472 1.584,7.992 1.008,2.448 2.52,4.608 4.392,6.552 1.872,1.872 4.104,3.312 6.552,4.392 2.52,1.008 5.184,1.584 7.992,1.584 z" transform="translate(0 170.6136993765064) translate(252 171.88068806496702) scale(2.2650956427923252) translate(-398.6045 -82.056)" fill="#2B63D9"></path>
      <path id="path107176" style="font-style: normal; font-weight: 700; font-size: 72px; line-height: 1; font-family: Brandmark1Bold; font-variant-ligatures: none; text-align: center; text-anchor: middle;" d="m 469.41537,88.032 c -3.45599,-3.456 -7.99199,-5.328 -12.888,-5.328 -2.59199,0 -5.112,0.504 -7.416,1.584 v -19.8 l -10.8,3.6 v 31.248 c -0.072,0.576 -0.072,1.08 -0.072,1.656 h 0.072 v 21.528 h 10.8 V 99.912 c 0.504,-3.6 3.6,-6.408 7.416,-6.408 4.104,0 7.488,3.312 7.488,7.488 v 21.528 h 10.80001 v -21.528 c 0,-4.896 -1.94401,-9.504 -5.40001,-12.96 z" transform="translate(0 170.6136993765064) translate(341.77677133964033 132.08748781239146) scale(2.2650956427923252) translate(-438.23937 -64.488)" fill="#2B63D9"></path>
      <path id="path107178" style="font-style: normal; font-weight: 700; font-size: 72px; line-height: 1; font-family: Brandmark1Bold; font-variant-ligatures: none; text-align: center; text-anchor: middle;" d="m 498.437,123.024 c 2.736,0 5.472,-0.576 7.992,-1.584 2.448,-1.08 4.68,-2.52 6.552,-4.392 1.872,-1.944 3.312,-4.104 4.392,-6.552 1.08,-2.52 1.584,-5.256 1.584,-7.992 0,-2.808 -0.504,-5.472 -1.584,-7.992 -1.08,-2.448 -2.52,-4.68 -4.392,-6.552 -1.944,-1.872 -4.104,-3.312 -6.552,-4.392 -2.52,-1.08 -5.256,-1.584 -7.992,-1.584 -2.736,0 -5.472,0.504 -7.992,1.584 -2.448,1.08 -4.608,2.52 -6.552,4.392 -1.872,1.944 -3.312,4.104 -4.392,6.552 -1.008,2.52 -1.584,5.184 -1.584,7.992 0,2.736 0.576,5.472 1.584,7.992 1.08,2.448 2.52,4.608 4.392,6.552 1.944,1.872 4.104,3.312 6.552,4.392 2.52,1.008 5.256,1.584 7.992,1.584 z m 0,-30.24 c 5.328,0 9.72,4.392 9.72,9.72 0,5.328 -4.392,9.72 -9.72,9.72 -5.328,0 -9.72,-4.392 -9.72,-9.72 0,-5.328 4.392,-9.72 9.72,-9.72 z" transform="translate(0 170.6136993765064) translate(431.6503981689663 171.71760117868598) scale(2.2650956427923252) translate(-477.917 -81.984)" fill="#2B63D9"></path>
      <path id="path107180" style="font-style: normal; font-weight: 700; font-size: 72px; line-height: 1; font-family: Brandmark1Bold; font-variant-ligatures: none; text-align: center; text-anchor: middle;" d="m 533.627,122.52 v 0 -17.712 c 0,-6.912 5.616,-12.6 12.6,-12.6 v -10.8 c -3.168,0 -6.264,0.648 -9.144,1.872 -2.736,1.152 -5.256,2.88 -7.416,5.04 -2.16,2.088 -3.816,4.608 -5.04,7.416 -1.224,2.88 -1.8,5.904 -1.8,9.072 v 17.712 z" transform="translate(0 170.6136993765064) translate(533.3758434867696 170.4129060884376) scale(2.2650956427923252) translate(-522.827 -81.408)" fill="#2B63D9"></path>
      <path id="path107182" style="font-style: normal; font-weight: 700; font-size: 72px; line-height: 1; font-family: Brandmark1Bold; font-variant-ligatures: none; text-align: center; text-anchor: middle;" d="m 546.43512,110.496 c 1.08,2.448 2.52,4.68 4.39201,6.552 1.94399,1.872 4.10399,3.384 6.552,4.392 2.52,1.08 5.256,1.584 7.99199,1.584 2.736,0 5.472,-0.504 7.992,-1.584 2.448,-1.008 4.60801,-2.52 6.552,-4.392 1.87201,-1.872 3.312,-4.104 4.39201,-6.552 1.07999,-2.52 1.58399,-5.184 1.58399,-7.992 v -34.92 l -10.79999,-3.6 v 20.448 c -0.57601,-0.288 -1.15201,-0.576 -1.72801,-0.792 -2.52,-1.08 -5.184,-1.584 -7.992,-1.584 -2.73599,0 -5.47199,0.504 -7.99199,1.584 -2.44801,1.008 -4.60801,2.52 -6.552,4.392 -1.87201,1.872 -3.31201,4.104 -4.39201,6.552 -1.00799,2.52 -1.58399,5.184 -1.58399,7.92 0,2.808 0.576,5.472 1.58399,7.992 z m 18.936,-17.712 c 5.328,0 9.72001,4.392 9.72001,9.72 0,5.4 -4.39201,9.72 -9.72001,9.72 -5.32799,0 -9.72,-4.32 -9.72,-9.72 0,-5.328 4.39201,-9.72 9.72,-9.72 z" transform="translate(0 170.6136993765064) translate(583.2626043860614 130.94587960842412) scale(2.2650956427923252) translate(-544.85113 -63.984)" fill="#2B63D9"></path>
      <path id="path107184" style="font-style: normal; font-weight: 700; font-size: 72px; line-height: 1; font-family: Brandmark1Bold; font-variant-ligatures: none; text-align: center; text-anchor: middle;" d="m 594.83938,136.776 h 11.44799 l 21.88801,-54.36 h -11.52 l -9.072,22.752 -9.648,-22.752 h -11.88 l 16.05599,36.288 z" transform="translate(0 170.6136993765064) translate(676.5941715255871 172.69612249637225) scale(2.2650956427923252) translate(-586.05538 -82.416)" fill="#2B63D9"></path>
    </g>
  </g>
</svg>