<svg xmlns:xlink="http://www.w3.org/1999/xlink" xmlns:dc="http://purl.org/dc/elements/1.1/" xmlns:cc="http://creativecommons.org/ns#" xmlns:rdf="http://www.w3.org/1999/02/22-rdf-syntax-ns#" xmlns:svg="http://www.w3.org/2000/svg" xmlns="http://www.w3.org/2000/svg" id="svg612362" viewBox="0 0 1024 768" height="768" width="1024" version="1.1">
  <metadata id="metadata612368">
    <rdf:rdf>
      <cc:work rdf:about="">
        <dc:format>image/svg+xml</dc:format>
        <dc:type rdf:resource="http://purl.org/dc/dcmitype/StillImage"></dc:type>
      </cc:work>
    </rdf:rdf>
  </metadata>
  <defs id="defs612366"></defs>
  <g id="logo-group">
    <g id="title" style="font-style:normal;font-weight:700;font-size:72px;line-height:1;font-family:Phenomena;font-variant-ligatures:none;text-align:center;text-anchor:middle" aria-label="Modemusic">
      <path id="path612370" style="font-style: normal; font-weight: 700; font-size: 72px; line-height: 1; font-family: Phenomena; font-variant-ligatures: none; text-align: center; text-anchor: middle;" d="m 407.01444,68.808 c -3.96,0 -6.552,1.872 -8.496,4.536 -1.944,-2.664 -4.464,-4.536 -8.496,-4.536 -7.272,0 -11.736,5.256 -11.736,13.392 v 36.792 c 0,0.648 0.36,1.008 0.936,1.008 h 4.536 c 0.576,0 0.936,-0.36 0.936,-1.008 v -37.08 c 0,-4.464 1.8,-6.984 5.328,-6.984 3.096,0 5.256,2.52 5.256,6.984 v 37.08 c 0,0.648 0.36,1.008 0.936,1.008 h 4.536 c 0.576,0 0.936,-0.36 0.936,-1.008 v -37.08 c 0,-4.464 2.088,-6.984 5.328,-6.984 3.384,0 5.256,2.52 5.256,6.984 v 37.08 c 0,0.648 0.36,1.008 0.936,1.008 h 4.536 c 0.648,0 1.008,-0.36 1.008,-1.008 V 82.2 c 0,-8.136 -4.536,-13.392 -11.736,-13.392 z" transform="translate(0 219.71756901546553) translate(252 114.08320648928112) scale(1.9313336601744144) translate(-378.28644 -68.808)" fill="#67CEF6"></path>
      <path id="path612372" style="font-style: normal; font-weight: 700; font-size: 72px; line-height: 1; font-family: Phenomena; font-variant-ligatures: none; text-align: center; text-anchor: middle;" d="m 436.96081,120.792 c 6.984,0 11.52,-4.896 11.52,-11.736 V 94.944 c 0,-6.84 -4.536,-11.736 -11.52,-11.736 -6.912,0 -11.52,4.896 -11.52,11.736 v 14.112 c 0,6.84 4.608,11.736 11.52,11.736 z m 0,-5.832 c -3.312,0 -5.256,-2.304 -5.256,-5.688 V 94.728 c 0,-3.384 1.944,-5.688 5.256,-5.688 3.312,0 5.328,2.304 5.328,5.688 v 14.544 c 0,3.384 -2.016,5.688 -5.328,5.688 z" transform="translate(0 219.71756901546553) translate(343.0708220053185 141.89441119579266) scale(1.9313336601744144) translate(-425.44081 -83.208)" fill="#67CEF6"></path>
      <path id="path612374" style="font-style: normal; font-weight: 700; font-size: 72px; line-height: 1; font-family: Phenomena; font-variant-ligatures: none; text-align: center; text-anchor: middle;" d="m 476.08831,69.6 h -4.176 c -0.648,0 -1.008,0.36 -1.008,0.936 v 15.336 c -1.44,-1.656 -3.456,-2.664 -5.976,-2.664 -6.48,0 -10.728,4.896 -10.728,11.736 v 14.112 c 0,6.84 4.536,11.736 11.448,11.736 6.84,0 11.448,-4.896 11.448,-11.736 v -38.52 c 0,-0.576 -0.36,-0.936 -1.008,-0.936 z m -5.184,39.672 c 0,3.384 -1.944,5.616 -5.256,5.616 -3.312,0 -5.328,-2.232 -5.328,-5.616 V 94.728 c 0,-3.384 2.016,-5.616 5.328,-5.616 3.312,0 5.256,2.232 5.256,5.616 z" transform="translate(0 219.71756901546553) translate(398.61501240510455 115.61282274813924) scale(1.9313336601744144) translate(-454.20031 -69.6)" fill="#67CEF6"></path>
      <path id="path612376" style="font-style: normal; font-weight: 700; font-size: 72px; line-height: 1; font-family: Phenomena; font-variant-ligatures: none; text-align: center; text-anchor: middle;" d="m 494.33244,120.72 c 6.48,0 11.016,-4.464 11.376,-11.16 0,-0.576 -0.36,-0.936 -0.936,-0.936 h -4.248 c -0.576,0 -0.936,0.288 -1.008,0.936 -0.216,3.168 -2.16,5.328 -5.112,5.328 -3.312,0 -5.256,-2.304 -5.256,-5.616 v -3.744 h 5.328 c 6.84,0 11.448,-4.536 11.448,-10.872 0,-6.624 -4.752,-11.448 -11.52,-11.376 -6.912,0 -11.376,4.752 -11.448,11.592 v 14.112 c 0,7.056 4.608,11.736 11.376,11.736 z m -5.184,-20.808 V 94.8 c 0,-3.456 1.872,-5.688 5.256,-5.688 3.312,0 5.328,2.232 5.328,5.688 0,3.024 -1.944,5.112 -5.256,5.112 z" transform="translate(0 219.71756901546553) translate(454.15269421045576 142.03193180906538) scale(1.9313336601744144) translate(-482.95644 -83.279205)" fill="#88C5C5"></path>
      <path id="path612378" style="font-style: normal; font-weight: 700; font-size: 72px; line-height: 1; font-family: Phenomena; font-variant-ligatures: none; text-align: center; text-anchor: middle;" d="m 537.80019,83.208 c -3.384,0 -6.12,1.8 -7.776,4.392 -1.656,-2.592 -4.464,-4.392 -7.776,-4.392 -6.552,0 -10.872,4.896 -10.872,11.736 v 24.048 c 0,0.648 0.36,1.008 1.008,1.008 h 4.104 c 0.648,0 1.008,-0.36 1.008,-1.008 V 94.728 c 0,-3.384 1.728,-5.616 4.752,-5.616 3.024,0 4.68,2.232 4.68,5.616 v 24.264 c 0,0.648 0.36,1.008 1.008,1.008 h 4.176 c 0.576,0 0.936,-0.36 0.936,-1.008 V 94.728 c 0,-3.384 1.728,-5.616 4.752,-5.616 3.024,0 4.68,2.232 4.68,5.616 v 24.264 c 0,0.648 0.36,1.008 1.008,1.008 h 4.176 c 0.576,0 0.936,-0.36 0.936,-1.008 V 94.944 c 0,-6.84 -4.248,-11.736 -10.8,-11.736 z" transform="translate(0 219.71756901546553) translate(509.0407139991976 141.89441119579266) scale(1.9313336601744144) translate(-511.37619 -83.208)" fill="#88C5C5"></path>
      <path id="path612380" style="font-style: normal; font-weight: 700; font-size: 72px; line-height: 1; font-family: Phenomena; font-variant-ligatures: none; text-align: center; text-anchor: middle;" d="m 555.97794,84 c -0.648,0 -1.008,0.36 -1.008,1.008 v 24.048 c 0,6.84 4.536,11.736 11.232,11.736 6.696,0 11.232,-4.896 11.232,-11.736 V 85.008 c 0,-0.648 -0.36,-1.008 -1.008,-1.008 h -4.176 c -0.648,0 -1.008,0.36 -1.008,1.008 v 24.264 c 0,3.384 -1.872,5.688 -5.04,5.688 -3.168,0 -5.04,-2.304 -5.04,-5.688 V 85.008 c 0,-0.648 -0.36,-1.008 -1.008,-1.008 z" transform="translate(0 219.71756901546553) translate(593.2347907474259 143.4240274546508) scale(1.9313336601744144) translate(-554.96994 -84)" fill="#A4BC9B"></path>
      <path id="path612382" style="font-style: normal; font-weight: 700; font-size: 72px; line-height: 1; font-family: Phenomena; font-variant-ligatures: none; text-align: center; text-anchor: middle;" d="m 595.16394,120.792 c 6.696,0 11.16,-4.464 11.16,-10.296 0,-12.096 -16.632,-10.152 -16.632,-17.064 0,-2.592 1.944,-4.392 4.896,-4.392 3.096,0 4.752,2.016 4.968,4.824 0.072,0.576 0.432,0.936 1.008,0.936 h 4.248 c 0.72,0 0.936,-0.504 0.936,-1.008 -0.216,-5.616 -3.6,-10.584 -11.304,-10.584 -6.48,0 -10.872,4.32 -10.872,10.08 0,11.808 16.56,9.864 16.56,17.136 0,2.592 -1.728,4.464 -5.04,4.464 -3.744,0 -5.472,-2.016 -5.76,-5.688 -0.072,-0.72 -0.504,-0.936 -1.008,-0.936 h -4.176 c -0.792,0 -1.008,0.504 -1.008,1.08 0.216,6.336 4.536,11.448 12.024,11.448 z" transform="translate(0 219.71756901546553) translate(647.6404599545394 141.89441119579266) scale(1.9313336601744144) translate(-583.13994 -83.208)" fill="#A4BC9B"></path>
      <path id="path612384" style="font-style: normal; font-weight: 700; font-size: 72px; line-height: 1; font-family: Phenomena; font-variant-ligatures: none; text-align: center; text-anchor: middle;" d="m 615.73569,79.464 c 2.088,0 3.744,-1.728 3.744,-3.672 0,-2.16 -1.656,-3.744 -3.744,-3.744 -2.16,0 -3.672,1.584 -3.672,3.744 0,2.088 1.512,3.672 3.672,3.672 z m -2.088,40.536 h 4.176 c 0.648,0 1.008,-0.36 1.008,-1.008 V 84.936 c 0,-0.576 -0.36,-0.936 -1.008,-0.936 h -4.176 c -0.648,0 -1.008,0.36 -1.008,0.936 v 34.056 c 0,0.648 0.36,1.008 1.008,1.008 z" transform="translate(0 219.71756901546553) translate(703.5018719080091 120.34072754824622) scale(1.9313336601744144) translate(-612.06369 -72.048)" fill="#C5B36A"></path>
      <path id="path612386" style="font-style: normal; font-weight: 700; font-size: 72px; line-height: 1; font-family: Phenomena; font-variant-ligatures: none; text-align: center; text-anchor: middle;" d="m 636.15444,120.792 c 6.552,0 10.944,-4.68 11.376,-11.448 0,-0.72 -0.36,-1.08 -0.936,-1.08 h -4.32 c -0.576,0 -0.864,0.288 -0.936,1.008 -0.288,3.528 -2.232,5.616 -5.256,5.616 -3.24,0 -5.184,-2.232 -5.184,-5.616 V 94.728 c 0,-3.384 1.944,-5.616 5.112,-5.616 2.952,0 4.752,1.872 5.04,5.112 0.072,0.648 0.432,0.936 1.008,0.936 h 4.248 c 0.648,0 1.008,-0.36 0.936,-0.936 -0.432,-6.552 -4.752,-11.016 -11.232,-11.016 -6.768,0 -11.304,4.896 -11.304,11.736 v 14.112 c 0,6.84 4.608,11.736 11.448,11.736 z" transform="translate(0 219.71756901546553) translate(727.9192405401793 141.89441119579266) scale(1.9313336601744144) translate(-624.70644 -83.208)" fill="#C5B36A"></path>
    </g>
  </g>
</svg>