<svg xmlns:xlink="http://www.w3.org/1999/xlink" xmlns:dc="http://purl.org/dc/elements/1.1/" xmlns:cc="http://creativecommons.org/ns#" xmlns:rdf="http://www.w3.org/1999/02/22-rdf-syntax-ns#" xmlns:svg="http://www.w3.org/2000/svg" xmlns="http://www.w3.org/2000/svg" id="svg253010" viewBox="0 0 1024 768" height="768" width="1024" version="1.1">
  <metadata id="metadata253016">
    <rdf:rdf>
      <cc:work rdf:about="">
        <dc:format>image/svg+xml</dc:format>
        <dc:type rdf:resource="http://purl.org/dc/dcmitype/StillImage"></dc:type>
      </cc:work>
    </rdf:rdf>
  </metadata>
  <defs id="defs253014"></defs>
  <g id="logo-group">
    <g id="title" style="font-style:normal;font-weight:800;font-size:72px;line-height:1;font-family:MontserratExtraBoldAlt1;font-variant-ligatures:none;text-align:center;text-anchor:middle" aria-label="Synthy">
      <path id="path253018" style="font-style: normal; font-weight: 800; font-size: 72px; line-height: 1; font-family: MontserratExtraBoldAlt1; font-variant-ligatures: none; text-align: center; text-anchor: middle;" d="m 389.5595,119.496 c 3.816,1.008 7.776,1.512 11.88,1.512 4.752,0 8.856,-0.72 12.24,-2.16 3.312,-1.44 5.832,-3.456 7.56,-5.904 1.656,-2.448 2.52,-5.184 2.52,-8.208 0,-3.456 -0.936,-6.264 -2.808,-8.28 -1.872,-2.016 -4.032,-3.528 -6.552,-4.464 -2.52,-0.936 -5.688,-1.8 -9.504,-2.664 -3.456,-0.72 -5.904,-1.368 -7.416,-2.088 -1.584,-0.648 -2.304,-1.656 -2.304,-3.024 0,-1.296 0.648,-2.376 1.944,-3.24 1.296,-0.864 3.312,-1.296 6.192,-1.296 4.464,0 9.144,1.296 13.968,3.888 l 4.392,-10.584 c -2.448,-1.44 -5.328,-2.52 -8.496,-3.24 -3.24,-0.72 -6.48,-1.152 -9.792,-1.152 -4.896,0 -9,0.72 -12.312,2.16 -3.312,1.44 -5.832,3.456 -7.488,5.904 -1.728,2.448 -2.52,5.256 -2.52,8.28 0,3.528 0.864,6.336 2.736,8.352 1.8,2.088 3.96,3.6 6.552,4.536 2.52,0.936 5.688,1.8 9.504,2.592 3.456,0.792 5.904,1.512 7.488,2.232 1.584,0.72 2.376,1.728 2.376,3.168 0,2.736 -2.736,4.104 -8.208,4.104 -2.88,0 -5.832,-0.432 -8.784,-1.368 -3.024,-0.864 -5.616,-2.088 -7.848,-3.6 l -4.68,10.512 c 2.376,1.728 5.472,3.024 9.36,4.032 z" transform="translate(0 203.95090520182615) translate(252 117.49402765911509) scale(1.9546015229052236) translate(-380.1995 -68.592)" fill="#373737"></path>
      <path id="path253020" style="font-style: normal; font-weight: 800; font-size: 72px; line-height: 1; font-family: MontserratExtraBoldAlt1; font-variant-ligatures: none; text-align: center; text-anchor: middle;" d="m 470.03525,80.976 h -13.032 l -9.648,23.832 -9.576,-23.832 h -14.04 l 16.704,39.528 c -0.576,1.152 -1.296,2.016 -2.16,2.52 -0.864,0.576 -1.872,0.792 -3.168,0.792 -1.152,0 -2.232,-0.144 -3.312,-0.576 -1.08,-0.432 -2.016,-1.008 -2.736,-1.728 l -4.752,9.576 c 1.296,1.08 2.952,1.944 5.04,2.592 2.088,0.648 4.176,0.936 6.264,0.936 4.032,0 7.488,-0.936 10.368,-2.88 2.808,-1.944 5.184,-5.328 7.2,-10.152 z" transform="translate(0 203.95090520182615) translate(337.10286165691275 141.6998129187734) scale(1.9546015229052236) translate(-423.73925 -80.976)" fill="#373737"></path>
      <path id="path253022" style="font-style: normal; font-weight: 800; font-size: 72px; line-height: 1; font-family: MontserratExtraBoldAlt1; font-variant-ligatures: none; text-align: center; text-anchor: middle;" d="m 510.58137,84.648 c -2.952,-2.88 -6.84,-4.32 -11.664,-4.32 -2.52,0 -4.824,0.432 -6.91199,1.296 -2.16001,0.864 -3.96001,2.016 -5.47201,3.6 v -4.248 h -13.032 V 120 h 13.68 v -18.864 c 0,-3.024 0.64801,-5.328 2.08801,-6.912 1.44,-1.512 3.31199,-2.304 5.688,-2.304 4.24799,0 6.40799,2.664 6.40799,7.992 V 120 h 13.68001 V 97.68 c 0,-5.76 -1.51201,-10.152 -4.46401,-13.032 z" transform="translate(0 203.95090520182615) translate(434.3679771919052 140.43323113193082) scale(1.9546015229052236) translate(-473.50137 -80.328)" fill="#406570"></path>
      <path id="path253024" style="font-style: normal; font-weight: 800; font-size: 72px; line-height: 1; font-family: MontserratExtraBoldAlt1; font-variant-ligatures: none; text-align: center; text-anchor: middle;" d="m 550.49188,118.416 -3.384,-9.576 c -1.22401,0.864 -2.592,1.224 -4.17601,1.224 -1.296,0 -2.30399,-0.36 -3.024,-1.152 -0.72,-0.792 -1.08,-1.872 -1.08,-3.312 V 92.64 h 8.92801 V 82.416 h -8.92801 V 72.264 h -13.68 v 10.152 h -5.688 V 92.64 h 5.688 v 13.104 c 0,4.968 1.36801,8.712 4.10401,11.16 2.736,2.52 6.62399,3.744 11.736,3.744 1.87199,0 3.59999,-0.144 5.25599,-0.576 1.656,-0.36 3.096,-0.936 4.24801,-1.656 z" transform="translate(0 203.95090520182615) translate(524.1985312823449 124.67132445122309) scale(1.9546015229052236) translate(-519.45987 -72.264)" fill="#488CA2"></path>
      <path id="path253026" style="font-style: normal; font-weight: 800; font-size: 72px; line-height: 1; font-family: MontserratExtraBoldAlt1; font-variant-ligatures: none; text-align: center; text-anchor: middle;" d="m 592.847,84.648 c -2.952,-2.88 -6.84,-4.32 -11.664,-4.32 -2.304,0 -4.464,0.36 -6.48,1.08 -2.016,0.72 -3.816,1.8 -5.256,3.168 v -18 h -13.68 V 120 h 13.68 v -18.864 c 0,-3.024 0.648,-5.328 2.088,-6.912 1.44,-1.512 3.312,-2.304 5.688,-2.304 4.248,0 6.408,2.664 6.408,7.992 V 120 h 13.68 V 97.68 c 0,-5.76 -1.512,-10.152 -4.464,-13.032 z" transform="translate(0 203.95090520182615) translate(595.1645028726629 113.55355098893816) scale(1.9546015229052236) translate(-555.767 -66.576)" fill="#488CA2"></path>
      <path id="path253028" style="font-style: normal; font-weight: 800; font-size: 72px; line-height: 1; font-family: MontserratExtraBoldAlt1; font-variant-ligatures: none; text-align: center; text-anchor: middle;" d="m 646.23838,80.976 h -13.03201 l -9.648,23.832 -9.57599,-23.832 h -14.04001 l 16.70401,39.528 c -0.576,1.152 -1.29601,2.016 -2.16001,2.52 -0.86399,0.576 -1.872,0.792 -3.168,0.792 -1.15199,0 -2.232,-0.144 -3.31199,-0.576 -1.08001,-0.432 -2.01601,-1.008 -2.73601,-1.728 l -4.752,9.576 c 1.29601,1.08 2.952,1.944 5.04,2.592 2.08801,0.648 4.176,0.936 6.264,0.936 4.032,0 7.48801,-0.936 10.36801,-2.88 2.80799,-1.944 5.18399,-5.328 7.19999,-10.152 z" transform="translate(0 203.95090520182615) translate(681.5097483495646 141.6998129187734) scale(1.9546015229052236) translate(-599.94237 -80.976)" fill="#51B9DB"></path>
    </g>
  </g>
</svg>