<svg xmlns:xlink="http://www.w3.org/1999/xlink" xmlns:dc="http://purl.org/dc/elements/1.1/" xmlns:cc="http://creativecommons.org/ns#" xmlns:rdf="http://www.w3.org/1999/02/22-rdf-syntax-ns#" xmlns:svg="http://www.w3.org/2000/svg" xmlns="http://www.w3.org/2000/svg" id="svg365864" viewBox="0 0 1024 768" height="768" width="1024" version="1.1">
  <metadata id="metadata365870">
    <rdf:rdf>
      <cc:work rdf:about="">
        <dc:format>image/svg+xml</dc:format>
        <dc:type rdf:resource="http://purl.org/dc/dcmitype/StillImage"></dc:type>
      </cc:work>
    </rdf:rdf>
  </metadata>
  <defs id="defs365868"></defs>
  <g id="logo-group">
    <g id="title" style="font-style:normal;font-weight:800;font-size:72px;line-height:1;font-family:MontserratExtraBoldAlt1;font-variant-ligatures:none;text-align:center;text-anchor:middle" aria-label="ReggaeTune">
      <path id="path365872" style="font-style: normal; font-weight: 800; font-size: 72px; line-height: 1; font-family: MontserratExtraBoldAlt1; font-variant-ligatures: none; text-align: center; text-anchor: middle;" d="m 313.5455,104.16 c 3.096,-1.512 5.544,-3.6 7.272,-6.336 1.728,-2.736 2.592,-5.904 2.592,-9.576 0,-3.744 -0.936,-7.056 -2.736,-9.864 -1.872,-2.808 -4.464,-4.968 -7.776,-6.48 -3.384,-1.512 -7.344,-2.304 -11.88,-2.304 h -23.04 v 11.232 h 22.176 c 2.88,0 5.112,0.648 6.624,1.944 1.44,1.296 2.232,3.168 2.232,5.472 0,2.376 -0.792,4.176 -2.232,5.472 -1.512,1.296 -3.744,1.872 -6.624,1.872 h -22.176 V 120 h 14.256 v -13.392 h 7.776 l 9.144,13.392 h 15.264 z" transform="translate(0 291.2812) translate(238.04534650000005 56.96000000000001) scale(1.1) translate(-277.9775 -69.6)" fill="#00FFFF"></path>
      <path id="path365874" style="font-style: normal; font-weight: 800; font-size: 72px; line-height: 1; font-family: MontserratExtraBoldAlt1; font-variant-ligatures: none; text-align: center; text-anchor: middle;" d="m 370.29838,103.944 c 0.14399,-2.16 0.21599,-3.24 0.21599,-3.384 0,-4.176 -0.936,-7.776 -2.808,-10.8 -1.87199,-3.024 -4.32,-5.4 -7.488,-6.984 -3.168,-1.584 -6.696,-2.448 -10.584,-2.448 -4.104,0 -7.77599,0.864 -11.01599,2.592 -3.31201,1.728 -5.832,4.176 -7.70401,7.2 -1.872,3.024 -2.73599,6.48 -2.73599,10.296 0,3.888 0.93599,7.416 2.80799,10.44 1.87201,3.096 4.60801,5.472 8.064,7.2 3.456,1.728 7.41601,2.592 12.02401,2.592 7.272,0 12.81599,-2.088 16.63199,-6.336 l -7.2,-7.488 c -1.44,1.224 -2.808,2.088 -4.176,2.592 -1.368,0.576 -2.952,0.792 -4.824,0.792 -2.52,0 -4.608,-0.504 -6.264,-1.584 -1.656,-1.08 -2.736,-2.664 -3.31199,-4.68 z M 344.37837,91.848 c 1.44,-1.152 3.168,-1.8 5.328,-1.8 2.088,0 3.816,0.648 5.256,1.8 1.44,1.224 2.304,2.88 2.736,4.896 h -15.98399 c 0.35999,-2.016 1.22399,-3.672 2.66399,-4.896 z" transform="translate(0 291.2812) translate(296.56631450000003 68.76080000000002) scale(1.1) translate(-328.17838 -80.328)" fill="#00FFFF"></path>
      <path id="path365876" style="font-style: normal; font-weight: 800; font-size: 72px; line-height: 1; font-family: MontserratExtraBoldAlt1; font-variant-ligatures: none; text-align: center; text-anchor: middle;" d="m 418.868,80.976 h -13.032 v 4.752 c -2.592,-3.6 -6.696,-5.4 -12.24,-5.4 -3.456,0 -6.696,0.792 -9.576,2.376 -2.952,1.584 -5.256,3.744 -6.984,6.624 -1.728,2.88 -2.592,6.12 -2.592,9.792 0,3.744 0.864,7.056 2.592,9.936 1.728,2.88 4.032,5.04 6.984,6.624 2.88,1.584 6.12,2.304 9.576,2.304 5.04,0 8.928,-1.512 11.592,-4.608 v 1.296 c 0,3.168 -0.864,5.472 -2.52,7.056 -1.728,1.584 -4.32,2.376 -7.92,2.376 -2.376,0 -4.752,-0.36 -7.2,-1.08 -2.448,-0.72 -4.392,-1.8 -5.976,-3.096 l -4.968,9.576 c 2.304,1.728 5.184,2.952 8.568,3.816 3.312,0.864 6.912,1.296 10.8,1.296 7.344,0 13.032,-1.8 16.992,-5.4 3.888,-3.6 5.904,-9.072 5.904,-16.344 z m -15.984,23.904 c -1.584,1.512 -3.6,2.232 -6.048,2.232 -2.448,0 -4.536,-0.72 -6.12,-2.232 -1.656,-1.44 -2.448,-3.384 -2.448,-5.76 0,-2.304 0.792,-4.248 2.376,-5.688 1.584,-1.44 3.672,-2.232 6.192,-2.232 2.448,0 4.536,0.792 6.12,2.232 1.584,1.44 2.376,3.384 2.376,5.688 0,2.376 -0.864,4.32 -2.448,5.76 z" transform="translate(0 291.2812) translate(350.7584965000001 68.76080000000002) scale(1.1) translate(-374.444 -80.328)" fill="#00FFFF"></path>
      <path id="path365878" style="font-style: normal; font-weight: 800; font-size: 72px; line-height: 1; font-family: MontserratExtraBoldAlt1; font-variant-ligatures: none; text-align: center; text-anchor: middle;" d="m 469.63362,80.976 h -13.03199 v 4.752 c -2.592,-3.6 -6.69601,-5.4 -12.24001,-5.4 -3.456,0 -6.696,0.792 -9.576,2.376 -2.952,1.584 -5.256,3.744 -6.984,6.624 -1.728,2.88 -2.59199,6.12 -2.59199,9.792 0,3.744 0.86399,7.056 2.59199,9.936 1.728,2.88 4.032,5.04 6.984,6.624 2.88,1.584 6.12,2.304 9.576,2.304 5.04001,0 8.928,-1.512 11.592,-4.608 v 1.296 c 0,3.168 -0.864,5.472 -2.52,7.056 -1.728,1.584 -4.31999,2.376 -7.92,2.376 -2.37599,0 -4.752,-0.36 -7.2,-1.08 -2.44799,-0.72 -4.392,-1.8 -5.976,-3.096 l -4.968,9.576 c 2.30401,1.728 5.184,2.952 8.56801,3.816 3.31199,0.864 6.91199,1.296 10.79999,1.296 7.344,0 13.03201,-1.8 16.992,-5.4 3.888,-3.6 5.904,-9.072 5.904,-16.344 z m -15.98399,23.904 c -1.58401,1.512 -3.60001,2.232 -6.048,2.232 -2.44801,0 -4.53601,-0.72 -6.12001,-2.232 -1.656,-1.44 -2.44799,-3.384 -2.44799,-5.76 0,-2.304 0.79199,-4.248 2.37599,-5.688 1.584,-1.44 3.672,-2.232 6.19201,-2.232 2.44799,0 4.536,0.792 6.12,2.232 1.584,1.44 2.37599,3.384 2.37599,5.688 0,2.376 -0.86399,4.32 -2.44799,5.76 z" transform="translate(0 291.2812) translate(409.9006895000001 68.76080000000002) scale(1.1) translate(-425.20963 -80.328)" fill="#00FFFF"></path>
      <path id="path365880" style="font-style: normal; font-weight: 800; font-size: 72px; line-height: 1; font-family: MontserratExtraBoldAlt1; font-variant-ligatures: none; text-align: center; text-anchor: middle;" d="m 509.88725,84.792 c -3.456,-2.952 -8.352,-4.464 -14.832,-4.464 -3.168,0 -6.264,0.432 -9.36,1.224 -3.096,0.792 -5.688,1.872 -7.848,3.312 l 4.608,9.288 c 1.296,-1.008 2.952,-1.872 4.896,-2.448 1.872,-0.576 3.816,-0.936 5.688,-0.936 5.256,0 7.992,2.088 8.28,6.192 h -7.776 c -5.904,0 -10.296,1.08 -13.104,3.096 -2.88,2.016 -4.248,4.896 -4.248,8.568 0,2.304 0.504,4.392 1.656,6.192 1.152,1.8 2.808,3.24 5.04,4.248 2.16,1.08 4.824,1.584 7.848,1.584 5.688,0 9.504,-1.872 11.52,-5.688 V 120 h 12.744 V 98.328 c 0,-6.048 -1.728,-10.584 -5.112,-13.536 z m -11.16,26.064 c -1.224,0.792 -2.592,1.152 -4.176,1.152 -1.584,0 -2.88,-0.36 -3.744,-1.08 -0.936,-0.72 -1.368,-1.656 -1.368,-2.88 0,-2.592 1.944,-3.96 5.976,-3.96 h 5.904 v 3.384 c -0.576,1.512 -1.44,2.664 -2.592,3.384 z" transform="translate(0 291.2812) translate(469.28047150000015 68.76080000000002) scale(1.1) translate(-476.19125 -80.328)" fill="#00FFFF"></path>
      <path id="path365882" style="font-style: normal; font-weight: 800; font-size: 72px; line-height: 1; font-family: MontserratExtraBoldAlt1; font-variant-ligatures: none; text-align: center; text-anchor: middle;" d="m 563.939,103.944 c 0.144,-2.16 0.216,-3.24 0.216,-3.384 0,-4.176 -0.936,-7.776 -2.808,-10.8 -1.872,-3.024 -4.32,-5.4 -7.488,-6.984 -3.168,-1.584 -6.696,-2.448 -10.584,-2.448 -4.104,0 -7.776,0.864 -11.016,2.592 -3.312,1.728 -5.832,4.176 -7.704,7.2 -1.872,3.024 -2.736,6.48 -2.736,10.296 0,3.888 0.936,7.416 2.808,10.44 1.872,3.096 4.608,5.472 8.064,7.2 3.456,1.728 7.416,2.592 12.024,2.592 7.272,0 12.816,-2.088 16.632,-6.336 l -7.2,-7.488 c -1.44,1.224 -2.808,2.088 -4.176,2.592 -1.368,0.576 -2.952,0.792 -4.824,0.792 -2.52,0 -4.608,-0.504 -6.264,-1.584 -1.656,-1.08 -2.736,-2.664 -3.312,-4.68 z m -25.92,-12.096 c 1.44,-1.152 3.168,-1.8 5.328,-1.8 2.088,0 3.816,0.648 5.256,1.8 1.44,1.224 2.304,2.88 2.736,4.896 h -15.984 c 0.36,-2.016 1.224,-3.672 2.664,-4.896 z" transform="translate(0 291.2812) translate(522.7709965 68.76080000000002) scale(1.1) translate(-521.819 -80.328)" fill="#00FFFF"></path>
      <path id="path365884" style="font-style: normal; font-weight: 800; font-size: 72px; line-height: 1; font-family: MontserratExtraBoldAlt1; font-variant-ligatures: none; text-align: center; text-anchor: middle;" d="M 575.29925,80.904 V 120 h 14.256 V 80.904 h 15.408 V 69.6 h -45.144 v 11.304 z" transform="translate(0 291.2812) translate(567.8712715000001 56.96000000000001) scale(1.1) translate(-559.81925 -69.6)" fill="#FF0000"></path>
      <path id="path365886" style="font-style: normal; font-weight: 800; font-size: 72px; line-height: 1; font-family: MontserratExtraBoldAlt1; font-variant-ligatures: none; text-align: center; text-anchor: middle;" d="m 649.82263,80.976 h -13.68001 v 18.792 c 0,3.168 -0.71999,5.472 -2.088,6.984 -1.36799,1.512 -3.096,2.232 -5.25599,2.232 -2.16,0 -3.74401,-0.648 -4.824,-2.016 -1.152,-1.296 -1.65601,-3.456 -1.65601,-6.408 V 80.976 h -13.67999 v 21.816 c 0,5.976 1.43999,10.44 4.46399,13.392 3.024,3.024 7.05601,4.464 12.096,4.464 2.232,0 4.39201,-0.36 6.408,-1.224 2.016,-0.792 3.74401,-2.016 5.184,-3.6 V 120 h 13.03201 z" transform="translate(0 291.2812) translate(624.8725895000002 69.4736) scale(1.1) translate(-608.63863 -80.976)" fill="#FF0000"></path>
      <path id="path365888" style="font-style: normal; font-weight: 800; font-size: 72px; line-height: 1; font-family: MontserratExtraBoldAlt1; font-variant-ligatures: none; text-align: center; text-anchor: middle;" d="m 695.64387,84.648 c -2.952,-2.88 -6.84,-4.32 -11.664,-4.32 -2.52,0 -4.82399,0.432 -6.912,1.296 -2.16,0.864 -3.95999,2.016 -5.472,3.6 V 80.976 H 658.56388 V 120 h 13.67999 v -18.864 c 0,-3.024 0.64801,-5.328 2.088,-6.912 1.44001,-1.512 3.312,-2.304 5.688,-2.304 4.248,0 6.408,2.664 6.408,7.992 V 120 h 13.68001 V 97.68 c 0,-5.76 -1.51201,-10.152 -4.46401,-13.032 z" transform="translate(0 291.2812) translate(683.0903645000003 68.76080000000002) scale(1.1) translate(-658.56388 -80.328)" fill="#FF0000"></path>
      <path id="path365890" style="font-style: normal; font-weight: 800; font-size: 72px; line-height: 1; font-family: MontserratExtraBoldAlt1; font-variant-ligatures: none; text-align: center; text-anchor: middle;" d="m 748.86087,103.944 c 0.144,-2.16 0.216,-3.24 0.216,-3.384 0,-4.176 -0.93599,-7.776 -2.808,-10.8 -1.87199,-3.024 -4.31999,-5.4 -7.48799,-6.984 -3.168,-1.584 -6.69601,-2.448 -10.58401,-2.448 -4.10399,0 -7.77599,0.864 -11.01599,2.592 -3.31201,1.728 -5.832,4.176 -7.70401,7.2 -1.872,3.024 -2.736,6.48 -2.736,10.296 0,3.888 0.936,7.416 2.808,10.44 1.87201,3.096 4.60801,5.472 8.06401,7.2 3.456,1.728 7.41599,2.592 12.024,2.592 7.27199,0 12.81599,-2.088 16.63199,-6.336 l -7.19999,-7.488 c -1.44001,1.224 -2.80801,2.088 -4.17601,2.592 -1.368,0.576 -2.952,0.792 -4.82399,0.792 -2.52001,0 -4.60801,-0.504 -6.264,-1.584 -1.65601,-1.08 -2.736,-2.664 -3.312,-4.68 z m -25.92,-12.096 c 1.44001,-1.152 3.168,-1.8 5.328,-1.8 2.088,0 3.816,0.648 5.256,1.8 1.44,1.224 2.30401,2.88 2.736,4.896 h -15.98399 c 0.36,-2.016 1.22399,-3.672 2.66399,-4.896 z" transform="translate(0 291.2812) translate(739.3850535000003 68.76080000000002) scale(1.1) translate(-706.74087 -80.328)" fill="#FF0000"></path>
    </g>
  </g>
</svg>